<?xml version="1.0" encoding="utf-8"?>
<!DOCTYPE svg PUBLIC "-//W3C//DTD SVG 1.1//EN" "http://www.w3.org/Graphics/SVG/1.1/DTD/svg11.dtd">
<svg version="1.1" id="hhsoj_ct" xmlns="http://www.w3.org/2000/svg" xmlns:xlink="http://www.w3.org/1999/xlink" x="0px" y="0px"
	 width="512px" height="512px" viewBox="0 0 512 512" enable-background="new 0 0 512 512" xml:space="preserve">
<g>
	<defs>
		<path id="SVGID_1_" d="M161.646,403.395c-1.974,0-3.889-0.704-5.393-1.98c-1.897-1.611-2.97-3.961-2.941-6.449l2.693-238.43
			c0.045-4.006,2.94-7.418,6.887-8.114l48.727-8.592c0.475-0.084,0.962-0.126,1.446-0.126c1.975,0,3.889,0.703,5.394,1.98
			c1.897,1.61,2.968,3.959,2.938,6.447l-0.912,80.754c-0.012,1.063,0.449,2.075,1.26,2.763c0.651,0.553,1.472,0.849,2.311,0.849
			c0.208,0,0.415-0.018,0.621-0.054l65.744-11.592c1.693-0.299,2.933-1.76,2.951-3.478l0.961-85.229
			c0.044-4.005,2.942-7.418,6.886-8.113l48.879-8.619c0.477-0.084,0.965-0.125,1.448-0.125c1.972,0,3.888,0.704,5.392,1.981
			c1.899,1.61,2.968,3.959,2.942,6.446l-2.692,238.435c-0.044,4.004-2.943,7.416-6.886,8.111l-48.879,8.616
			c-0.473,0.084-0.959,0.125-1.446,0.125c-1.975,0-3.891-0.703-5.396-1.98c-1.897-1.611-2.967-3.962-2.939-6.447l0.932-82.746
			c0.014-1.063-0.45-2.076-1.26-2.764c-0.653-0.553-1.473-0.85-2.313-0.85c-0.206,0-0.414,0.02-0.619,0.057l-65.743,11.589
			c-1.693,0.298-2.933,1.761-2.952,3.478l-0.985,87.226c-0.046,4.004-2.941,7.417-6.886,8.112l-48.728,8.592
			C162.616,403.352,162.131,403.395,161.646,403.395z M452.465,256c0-108.331-88.134-196.465-196.465-196.465
			S59.535,147.669,59.535,256c0,108.33,88.134,196.465,196.465,196.465S452.465,364.33,452.465,256z M256,512
			c-68.381,0-132.667-26.629-181.02-74.981C26.628,388.667,0,324.382,0,256C0,187.619,26.628,123.333,74.98,74.98
			C123.333,26.629,187.619,0,256,0c68.38,0,132.667,26.629,181.02,74.981C485.371,123.333,512,187.619,512,256
			c0,68.382-26.629,132.667-74.98,181.019C388.667,485.371,324.38,512,256,512z"/>
	</defs>
	<clipPath id="SVGID_2_">
		<use xlink:href="#SVGID_1_"  overflow="visible"/>
	</clipPath>
	<g clip-path="url(#SVGID_2_)">
		<rect x="8.037" y="64" fill="#0066FF" width="71.145" height="71.144"/>
		<rect x="79.182" y="135.144" fill="#00CCFF" width="71.144" height="71.145"/>
		<rect x="150.326" y="206.289" fill="#00FF99" width="71.145" height="71.144"/>
		<rect x="221.47" y="277.433" fill="#66FF00" width="71.143" height="71.145"/>
		<rect x="292.613" y="348.577" fill="#FFFF00" width="71.145" height="71.145"/>
		<rect x="363.758" y="419.722" fill="#FF9900" width="71.145" height="71.144"/>
		<rect x="79.182" y="64" fill="#0099FF" width="71.144" height="71.144"/>
		<rect x="150.326" y="135.144" fill="#00FFCC" width="71.145" height="71.145"/>
		<rect x="221.47" y="206.289" fill="#00FF00" width="71.143" height="71.146"/>
		<rect x="292.613" y="277.433" fill="#CCFF00" width="71.145" height="71.145"/>
		<rect x="363.758" y="348.577" fill="#FFCC00" width="71.145" height="71.145"/>
		<rect x="8.037" y="135.144" fill="#0099FF" width="71.145" height="71.145"/>
		<rect x="8.037" y="206.289" fill="#00CCFF" width="71.145" height="71.144"/>
		<rect x="150.326" y="64" fill="#00CCFF" width="71.145" height="71.144"/>
		<rect x="221.47" y="-7.145" fill="#00CCFF" width="71.143" height="71.145"/>
		<rect x="-63.107" y="277.433" fill="#00CCFF" width="71.144" height="71.145"/>
		<rect x="-63.107" y="206.289" fill="#0099FF" width="71.144" height="71.144"/>
		<rect x="150.326" y="-7.145" fill="#0099FF" width="71.145" height="71.145"/>
		<rect x="221.47" y="64" fill="#00FFCC" width="71.143" height="71.144"/>
		<rect x="292.613" y="-7.145" fill="#00FFCC" width="71.145" height="71.145"/>
		<rect x="79.182" y="206.289" fill="#00FFCC" width="71.144" height="71.144"/>
		<rect x="8.037" y="277.433" fill="#00FFCC" width="71.145" height="71.145"/>
		<rect x="79.182" y="277.433" fill="#00FF99" width="71.144" height="71.145"/>
		<rect x="8.037" y="348.577" fill="#00FF99" width="71.145" height="71.145"/>
		<rect x="221.47" y="135.144" fill="#00FF99" width="71.143" height="71.145"/>
		<rect x="292.613" y="64" fill="#00FF99" width="71.145" height="71.144"/>
		<rect x="79.182" y="-7.145" fill="#0066FF" width="71.144" height="71.145"/>
		<rect x="-63.107" y="135.144" fill="#0066FF" width="71.144" height="71.145"/>
		<rect x="150.326" y="277.433" fill="#00FF00" width="71.145" height="71.145"/>
		<rect x="79.182" y="348.577" fill="#00FF00" width="71.144" height="71.145"/>
		<rect x="8.037" y="419.722" fill="#00FF00" width="71.145" height="71.144"/>
		<rect x="292.613" y="135.144" fill="#00FF00" width="71.145" height="71.145"/>
		<rect x="363.758" y="64" fill="#00FF00" width="71.145" height="71.144"/>
		<rect x="292.613" y="206.289" fill="#66FF00" width="71.145" height="71.144"/>
		<rect x="363.758" y="135.144" fill="#66FF00" width="71.145" height="71.145"/>
		<rect x="150.326" y="348.577" fill="#66FF00" width="71.145" height="71.145"/>
		<rect x="79.182" y="419.722" fill="#66FF00" width="71.144" height="71.144"/>
		<rect x="221.47" y="348.577" fill="#CCFF00" width="71.143" height="71.145"/>
		<rect x="150.326" y="419.722" fill="#CCFF00" width="71.145" height="71.144"/>
		<rect x="363.758" y="206.289" fill="#CCFF00" width="71.145" height="71.144"/>
		<rect x="434.902" y="135.144" fill="#CCFF00" width="71.145" height="71.145"/>
		<rect x="363.758" y="277.433" fill="#FFFF00" width="71.145" height="71.145"/>
		<rect x="434.902" y="206.289" fill="#FFFF00" width="71.145" height="71.144"/>
		<rect x="221.47" y="419.722" fill="#FFFF00" width="71.143" height="71.144"/>
		<rect x="150.326" y="490.865" fill="#FFFF00" width="71.145" height="71.145"/>
		<rect x="292.613" y="419.722" fill="#FFCC00" width="71.145" height="71.144"/>
		<rect x="221.47" y="490.865" fill="#FFCC00" width="71.143" height="71.145"/>
		<rect x="434.902" y="277.433" fill="#FFCC00" width="71.145" height="71.145"/>
		<rect x="434.902" y="348.577" fill="#FF9900" width="71.145" height="71.145"/>
		<rect x="292.613" y="490.865" fill="#FF9900" width="71.145" height="71.145"/>
		<rect x="434.902" y="419.722" fill="#FF5500" width="71.145" height="71.144"/>
		<rect x="506.047" y="206.289" fill="#FFCC00" width="71.145" height="71.144"/>
		<rect x="506.047" y="277.433" fill="#FF9900" width="71.145" height="71.145"/>
		<rect x="506.047" y="348.577" fill="#FF5500" width="71.145" height="71.145"/>
		<rect x="434.902" y="64" fill="#66FF00" width="71.145" height="71.144"/>
		<rect x="363.758" y="-7.145" fill="#00FF99" width="71.145" height="71.145"/>
	</g>
</g>
</svg>
