<?xml version="1.0" encoding="iso-8859-1"?>
<!-- Generator: Adobe Illustrator 16.0.0, SVG Export Plug-In . SVG Version: 6.00 Build 0)  -->
<!DOCTYPE svg PUBLIC "-//W3C//DTD SVG 1.1//EN" "http://www.w3.org/Graphics/SVG/1.1/DTD/svg11.dtd">
<svg version="1.1" xmlns="http://www.w3.org/2000/svg" xmlns:xlink="http://www.w3.org/1999/xlink" x="0px" y="0px" width="512px"
	 height="512px" viewBox="0 0 512 512" style="enable-background:new 0 0 512 512;" xml:space="preserve">
<g>
	<defs>
		<path id="SVGID_1_" d="M176.757,379.788c-1.658,0-3.266-0.591-4.529-1.663c-1.593-1.353-2.494-3.326-2.47-5.416l2.261-200.244
			c0.038-3.364,2.47-6.23,5.784-6.814l40.923-7.216c0.399-0.071,0.808-0.106,1.215-0.106c1.658,0,3.266,0.591,4.53,1.663
			c1.593,1.353,2.493,3.326,2.469,5.415l-0.766,67.821c-0.01,0.893,0.378,1.743,1.059,2.321c0.546,0.464,1.236,0.713,1.941,0.713
			c0.173,0,0.348-0.015,0.521-0.045l55.214-9.736c1.422-0.251,2.463-1.478,2.479-2.921l0.807-71.579
			c0.038-3.364,2.471-6.23,5.784-6.814l41.049-7.238c0.402-0.071,0.811-0.107,1.216-0.107c1.656,0,3.266,0.591,4.529,1.664
			c1.595,1.352,2.494,3.325,2.47,5.414l-2.26,200.247c-0.038,3.364-2.471,6.229-5.784,6.813l-41.049,7.237
			c-0.398,0.071-0.805,0.106-1.215,0.106c-1.657,0-3.267-0.591-4.531-1.664c-1.594-1.353-2.493-3.326-2.469-5.414l0.783-69.495
			c0.01-0.893-0.378-1.744-1.059-2.321c-0.547-0.464-1.236-0.713-1.941-0.713c-0.173,0-0.348,0.015-0.521,0.046l-55.213,9.734
			c-1.421,0.25-2.462,1.478-2.479,2.92l-0.827,73.256c-0.039,3.364-2.471,6.23-5.784,6.814l-40.923,7.216
			C177.572,379.752,177.165,379.788,176.757,379.788z M421,256c0-90.981-74.019-165-165-165S91,165.019,91,256s74.019,165,165,165
			S421,346.981,421,256z M256,471c-57.429,0-111.42-22.364-152.028-62.973C63.364,367.42,41,313.429,41,256
			s22.364-111.42,62.972-152.028C144.58,63.364,198.571,41,256,41s111.42,22.364,152.028,62.972C448.636,144.58,471,198.571,471,256
			s-22.364,111.42-62.972,152.027C367.42,448.636,313.429,471,256,471z"/>
	</defs>
	<clipPath id="SVGID_2_">
		<use xlink:href="#SVGID_1_"  style="overflow:visible;"/>
	</clipPath>
	<g style="clip-path:url(#SVGID_2_);">
		<rect x="47.75" y="94.75" style="fill:#0000FF;" width="59.75" height="59.75"/>
		<rect x="107.5" y="154.5" style="fill:#00BBFF;" width="59.75" height="59.75"/>
		<rect x="167.25" y="214.25" style="fill:#00FF88;" width="59.75" height="59.75"/>
		<rect x="227" y="274" style="fill:#77FF00;" width="59.75" height="59.75"/>
		<rect x="286.75" y="333.75" style="fill:#FFBB00;" width="59.75" height="59.75"/>
		<rect x="346.5" y="393.5" style="fill:#FF2200;" width="59.75" height="59.75"/>
		<rect x="107.5" y="94.75" style="fill:#0044FF;" width="59.75" height="59.75"/>
		<rect x="167.25" y="154.5" style="fill:#00FFC1;" width="59.75" height="59.75"/>
		<rect x="227" y="214.25" style="fill:#00FF00;" width="59.75" height="59.75"/>
		<rect x="286.75" y="274" style="fill:#FFFF00;" width="59.75" height="59.75"/>
		<rect x="346.5" y="333.75" style="fill:#FF6600;" width="59.75" height="59.75"/>
		<rect x="47.75" y="154.5" style="fill:#0044FF;" width="59.75" height="59.75"/>
		<rect x="47.75" y="214.25" style="fill:#00BBFF;" width="59.75" height="59.75"/>
		<rect x="167.25" y="94.75" style="fill:#00BBFF;" width="59.75" height="59.75"/>
		<rect x="227" y="35" style="fill:#00BBFF;" width="59.75" height="59.75"/>
		<rect x="-12" y="274" style="fill:#00BBFF;" width="59.75" height="59.75"/>
		<rect x="-12" y="214.25" style="fill:#0044FF;" width="59.75" height="59.752"/>
		<rect x="167.25" y="35" style="fill:#0044FF;" width="59.75" height="59.75"/>
		<rect x="227" y="94.75" style="fill:#00FFC1;" width="59.75" height="59.75"/>
		<rect x="286.75" y="35" style="fill:#00FFC1;" width="59.75" height="59.75"/>
		<rect x="107.5" y="214.25" style="fill:#00FFC1;" width="59.75" height="59.75"/>
		<rect x="47.75" y="274" style="fill:#00FFC1;" width="59.75" height="59.75"/>
		<rect x="107.5" y="274" style="fill:#00FF88;" width="59.75" height="59.75"/>
		<rect x="47.75" y="333.75" style="fill:#00FF88;" width="59.75" height="59.75"/>
		<rect x="227" y="154.5" style="fill:#00FF88;" width="59.75" height="59.75"/>
		<rect x="286.75" y="94.75" style="fill:#00FF88;" width="59.75" height="59.75"/>
		<rect x="107.5" y="35" style="fill:#0000FF;" width="59.75" height="59.75"/>
		<rect x="-12" y="154.5" style="fill:#0000FF;" width="59.75" height="59.75"/>
		<rect x="167.25" y="274" style="fill:#00FF00;" width="59.75" height="59.75"/>
		<rect x="107.5" y="333.75" style="fill:#00FF00;" width="59.75" height="59.75"/>
		<rect x="47.75" y="393.5" style="fill:#00FF00;" width="59.75" height="59.75"/>
		<rect x="286.75" y="154.5" style="fill:#00FF00;" width="59.75" height="59.75"/>
		<rect x="346.5" y="94.75" style="fill:#00FF00;" width="59.75" height="59.75"/>
		<rect x="286.75" y="214.25" style="fill:#77FF00;" width="59.75" height="59.75"/>
		<rect x="346.5" y="154.5" style="fill:#77FF00;" width="59.75" height="59.75"/>
		<rect x="167.25" y="333.75" style="fill:#77FF00;" width="59.75" height="59.75"/>
		<rect x="107.5" y="393.5" style="fill:#77FF00;" width="59.75" height="59.75"/>
		<rect x="227" y="333.75" style="fill:#FFFF00;" width="59.75" height="59.75"/>
		<rect x="167.25" y="393.5" style="fill:#FFFF00;" width="59.75" height="59.75"/>
		<rect x="346.5" y="214.25" style="fill:#FFFF00;" width="59.75" height="59.75"/>
		<rect x="406.25" y="154.5" style="fill:#FFFF00;" width="59.75" height="59.75"/>
		<rect x="346.5" y="274" style="fill:#FFBB00;" width="59.75" height="59.75"/>
		<rect x="406.25" y="214.25" style="fill:#FFBB00;" width="59.75" height="59.752"/>
		<rect x="227" y="393.5" style="fill:#FFBB00;" width="59.75" height="59.75"/>
		<rect x="167.25" y="453.25" style="fill:#FFBB00;" width="59.75" height="59.75"/>
		<rect x="286.75" y="393.5" style="fill:#FF6600;" width="59.75" height="59.75"/>
		<rect x="227" y="453.25" style="fill:#FF6600;" width="59.75" height="59.75"/>
		<rect x="406.25" y="274" style="fill:#FF6600;" width="59.75" height="59.75"/>
		<rect x="406.25" y="333.75" style="fill:#FF2200;" width="59.75" height="59.75"/>
		<rect x="286.75" y="453.25" style="fill:#FF2200;" width="59.75" height="59.75"/>
		<rect x="406.25" y="393.5" style="fill:#FF0000;" width="59.75" height="59.75"/>
		<rect x="466" y="214.25" style="fill:#FF6600;" width="59.75" height="59.75"/>
		<rect x="466" y="274" style="fill:#FF2200;" width="59.75" height="59.75"/>
		<rect x="466" y="333.75" style="fill:#FF0000;" width="59.75" height="59.75"/>
		<rect x="406.25" y="94.75" style="fill:#77FF00;" width="59.75" height="59.75"/>
		<rect x="346.5" y="35" style="fill:#00FF88;" width="59.75" height="59.75"/>
	</g>
</g>
</svg>
