<?xml version="1.0" encoding="utf-8"?>
<!DOCTYPE svg PUBLIC "-//W3C//DTD SVG 1.1//EN" "http://www.w3.org/Graphics/SVG/1.1/DTD/svg11.dtd">
<svg version="1.1" id="hhsoj_b" xmlns="http://www.w3.org/2000/svg" xmlns:xlink="http://www.w3.org/1999/xlink" x="0px" y="0px"
	 width="512px" height="512px" viewBox="0 0 512 512" enable-background="new 0 0 512 512" xml:space="preserve">
<circle fill="#FFFFFF" cx="256" cy="256" r="256"/>
<path fill="#00A0E9" d="M171.475,388.04c-1.769,0-3.484-0.629-4.832-1.771c-1.7-1.446-2.66-3.549-2.635-5.779l2.412-213.592
	c0.041-3.588,2.634-6.645,6.17-7.268l43.65-7.697c0.425-0.076,0.862-0.112,1.296-0.112c1.77,0,3.484,0.63,4.833,1.773
	c1.699,1.443,2.659,3.548,2.633,5.776l-0.817,72.341c-0.01,0.953,0.403,1.859,1.129,2.476c0.583,0.495,1.318,0.761,2.071,0.761
	c0.185,0,0.371-0.016,0.557-0.048l58.893-10.385c1.518-0.267,2.63-1.577,2.646-3.116l0.86-76.351
	c0.039-3.588,2.636-6.645,6.168-7.267l43.786-7.721c0.429-0.076,0.865-0.114,1.296-0.114c1.767,0,3.483,0.631,4.832,1.774
	c1.7,1.442,2.659,3.547,2.635,5.774l-2.409,213.596c-0.041,3.589-2.638,6.646-6.17,7.27l-43.785,7.719
	c-0.424,0.074-0.857,0.112-1.295,0.112c-1.769,0-3.485-0.631-4.834-1.776c-1.699-1.441-2.659-3.547-2.634-5.773l0.835-74.127
	c0.011-0.953-0.402-1.86-1.129-2.476c-0.584-0.495-1.319-0.763-2.071-0.763c-0.185,0-0.373,0.018-0.555,0.05l-58.895,10.383
	c-1.516,0.268-2.626,1.576-2.645,3.115l-0.882,78.14c-0.041,3.588-2.635,6.646-6.169,7.266l-43.652,7.698
	C172.344,388.003,171.91,388.04,171.475,388.04z M431.999,256c0-97.047-78.953-176-175.999-176c-97.047,0-176,78.953-176,176
	c0,97.045,78.953,175.999,176,175.999C353.046,431.999,431.999,353.045,431.999,256z M256,485.333
	c-61.258,0-118.847-23.855-162.163-67.172C50.521,374.848,26.667,317.258,26.667,256s23.854-118.847,67.17-162.163
	C137.153,50.522,194.742,26.667,256,26.667c61.257,0,118.848,23.855,162.162,67.17c43.315,43.316,67.171,100.905,67.171,162.163
	s-23.855,118.848-67.171,162.161C374.848,461.478,317.257,485.333,256,485.333z"/>
</svg>
