<?xml version="1.0" encoding="utf-8"?>
<!DOCTYPE svg PUBLIC "-//W3C//DTD SVG 1.1//EN" "http://www.w3.org/Graphics/SVG/1.1/DTD/svg11.dtd">
<svg version="1.1" id="hhsoj_bt" xmlns="http://www.w3.org/2000/svg" xmlns:xlink="http://www.w3.org/1999/xlink" x="0px" y="0px"
	 width="512px" height="512px" viewBox="0 0 512 512" enable-background="new 0 0 512 512" xml:space="preserve">
<path fill="#00A0E9" d="M161.646,403.394c-1.975,0-3.889-0.702-5.394-1.978c-1.897-1.614-2.969-3.961-2.941-6.451l2.692-238.428
	c0.045-4.005,2.94-7.418,6.888-8.113l48.727-8.592c0.475-0.084,0.962-0.125,1.446-0.125c1.976,0,3.889,0.704,5.395,1.98
	c1.896,1.61,2.968,3.96,2.939,6.448l-0.912,80.753c-0.011,1.063,0.45,2.076,1.261,2.763c0.651,0.553,1.472,0.849,2.312,0.849
	c0.207,0,0.414-0.018,0.622-0.053l65.741-11.593c1.693-0.298,2.936-1.76,2.954-3.478l0.96-85.229
	c0.044-4.006,2.942-7.418,6.886-8.112l48.877-8.619c0.479-0.084,0.966-0.127,1.447-0.127c1.972,0,3.888,0.704,5.394,1.981
	c1.897,1.609,2.969,3.959,2.941,6.446l-2.689,238.433c-0.046,4.006-2.944,7.418-6.888,8.114l-48.876,8.616
	c-0.474,0.083-0.958,0.126-1.446,0.126c-1.974,0-3.891-0.704-5.396-1.983c-1.897-1.609-2.969-3.959-2.94-6.444l0.933-82.747
	c0.012-1.063-0.449-2.076-1.261-2.764c-0.651-0.552-1.473-0.851-2.313-0.851c-0.205,0-0.416,0.02-0.619,0.056l-65.742,11.59
	c-1.692,0.299-2.932,1.76-2.952,3.478l-0.984,87.226c-0.046,4.005-2.942,7.419-6.886,8.11l-48.728,8.594
	C162.617,403.353,162.132,403.394,161.646,403.394z M452.464,256c0-108.332-88.134-196.465-196.464-196.465
	C147.668,59.535,59.535,147.668,59.535,256c0,108.329,88.133,196.464,196.465,196.464C364.33,452.464,452.464,364.329,452.464,256z
	 M256,512c-68.381,0-132.667-26.629-181.02-74.982C26.628,388.667,0,324.381,0,256S26.628,123.333,74.98,74.98
	C123.333,26.629,187.619,0,256,0c68.38,0,132.667,26.629,181.019,74.98C485.371,123.333,512,187.619,512,256
	s-26.629,132.667-74.981,181.018C388.667,485.371,324.38,512,256,512z"/>
</svg>
